<?xml version="1.0" encoding="UTF-8"?><svg id="Layer_1" xmlns="http://www.w3.org/2000/svg" width="70.15" height="70" xmlns:xlink="http://www.w3.org/1999/xlink" viewBox="0 0 70.15 70"><defs><style>.cls-1{fill:none;}.cls-2{fill:#0070b0;fill-rule:evenodd;}.cls-3{clip-path:url(#clippath);}</style><clipPath id="clippath"><rect class="cls-1" x="0" width="70" height="70"/></clipPath></defs><g class="cls-3"><path class="cls-2" d="M33.04.22c-1.51.32-2.47.85-5.48,2.98-1.55,1.1-3.04,2.16-3.31,2.34l-.49.33h-5.76c-5.72,0-5.76,0-6.3.31-.3.17-.68.55-.85.85-.3.53-.31.65-.31,4.39v3.84s-5.09,3.6-5.09,3.6c-2.8,1.98-5.17,3.7-5.26,3.81-.26.32-.24,44.16.02,44.89.31.86.87,1.54,1.62,1.96l.71.39h64.94l.72-.4c.76-.42,1.49-1.33,1.63-2.03.04-.21.13-.41.2-.45.07-.04.12-9.79.12-22.22,0-13.76-.05-22.12-.13-22.07-.07.04-.18,0-.24-.1-.06-.1-2.4-1.8-5.2-3.79l-5.09-3.6v-3.84c0-3.73-.01-3.85-.31-4.38-.17-.31-.55-.68-.85-.85-.54-.31-.58-.31-6.31-.31h-5.76s-2.51-1.78-2.51-1.78c-3.92-2.77-4.42-3.1-5.27-3.42-1.83-.69-3.65-.84-5.43-.46ZM33.91,2.42c-.64.11-1.98.6-2.46.9-.77.49-3.27,2.3-3.35,2.44-.05.07,2.8.12,7,.12,3.89,0,7.05-.02,7.01-.05-.74-.62-3.74-2.65-4.28-2.89-1.17-.52-2.72-.72-3.92-.52ZM12.86,19.86v11.66l8.15,6.76c4.48,3.72,8.53,7.09,8.99,7.49,1.69,1.46,3.05,2,5.01,2,2.09,0,3.23-.5,5.5-2.41.47-.4,4.41-3.67,8.76-7.28l7.89-6.55V8.2H12.86v11.66ZM35.28,12.8c-3.96.41-6.75,1.66-9.62,4.3-2.02,1.86-3.78,4.67-4.48,7.17-.25.9-.31,1.44-.31,3.01,0,2.3.2,3.22,1.15,5.2,1.73,3.58,4.65,5.67,9.26,6.61,6.59,1.35,12.37.2,16.18-3.22,1.46-1.31,1.86-2.26,1.19-2.88-.29-.27-.58-.36-1.08-.33-.12,0-.71.5-1.31,1.09-2.24,2.22-5.07,3.35-8.86,3.53-2.59.12-5.41-.26-7.86-1.05-3.62-1.18-6.18-4.59-6.39-8.49-.09-1.68.19-3.03.98-4.7,1.74-3.69,5.3-6.64,9.17-7.59,1.51-.37,3.86-.41,5.39-.08,3.28.71,6,3.38,6.77,6.65.27,1.15.27,3.4,0,4.45-.49,1.92-1.84,3.87-3.07,4.43-.85.39-2.22.39-2.6.01-.34-.34-.34-.29.06-1.89.41-1.61,1.85-8.76,1.85-9.16,0-.16-.15-.45-.32-.66-.25-.29-.45-.38-.84-.38-.66,0-1.11.49-1.24,1.35l-.09.62-.65-.61c-3.24-3.03-8.05-1.41-10.47,3.54-.73,1.5-1.02,2.65-1.02,4.12,0,3.2,1.91,5.44,4.9,5.74,1.46.15,3.5-.49,4.82-1.5l.59-.45.42.56c.24.32.73.72,1.17.94.7.36.84.38,2.12.34,1.19-.04,1.49-.1,2.27-.47,1.08-.51,1.85-1.17,2.66-2.31.8-1.12,1.36-2.35,1.71-3.75.25-.99.28-1.41.22-3.07-.07-2.02-.29-3.04-.97-4.51-1.13-2.47-3.49-4.72-6.01-5.72-1.39-.56-4.29-.98-5.7-.83ZM6.82,20.75c-2.01,1.41-3.64,2.61-3.62,2.66.01.05,1.66,1.46,3.65,3.12l3.62,3.02.04-2.89c.02-1.59.02-4.14,0-5.68l-.04-2.79-3.65,2.56ZM59.48,23.86c0,5.46,0,5.68.25,5.51.67-.49,7.13-5.9,7.13-5.97,0-.07-6.69-4.83-7.18-5.12-.16-.09-.19.75-.19,5.58ZM33.81,21.11c-1.71.56-3.53,2.75-4.2,5.06-.32,1.11-.24,2.67.19,3.55.62,1.28,2.07,1.82,3.72,1.39,1.15-.29,2.02-.88,2.94-1.96,1.22-1.43,1.38-1.76,1.71-3.32l.3-1.45-.41-.88c-.74-1.59-1.71-2.4-3.03-2.52-.35-.03-.9.03-1.23.13ZM.08,44.98c0,12.22.02,17.22.04,11.11.02-6.11.02-16.11,0-22.22-.02-6.11-.04-1.11-.04,11.11ZM2.33,46.07c0,19.03.01,20.26.23,20.08,3.2-2.6,24.04-19.99,24.04-20.07,0-.06-5.35-4.56-11.89-9.99-6.54-5.43-12-9.97-12.13-10.09-.23-.2-.24.77-.24,20.06ZM55.49,35.94c-6.67,5.54-12.11,10.11-12.1,10.16.01.05,5.47,4.62,12.13,10.14l12.1,10.05.03-10.11c.02-5.56.02-14.66,0-20.21l-.03-10.1-12.13,10.07ZM16.5,57.61l-12.02,10,15.26.03c8.39.02,22.13.02,30.53,0l15.27-.03-11.27-9.36c-6.2-5.15-11.61-9.65-12.03-10l-.75-.64-.82.62c-2,1.52-4.67,2.21-7.04,1.81-1.71-.28-3.03-.87-4.71-2.12l-.42-.31-12.02,10Z"/></g></svg>