<?xml version="1.0" encoding="UTF-8"?><svg id="Layer_1" xmlns="http://www.w3.org/2000/svg" width="58" height="64" viewBox="0 0 58 64"><defs><style>.cls-1{fill:#0070b0;fill-rule:evenodd;}</style></defs><path class="cls-1" d="M28.2.35c-.35.35-.36.37-.36,3.08s0,2.73.36,3.08c.22.22.52.35.8.35s.58-.13.8-.35c.35-.35.36-.37.36-3.08s0-2.73-.36-3.08c-.22-.22-.52-.35-.8-.35s-.58.13-.8.35ZM8.54,8.42c-.74.73-.58,1.06,1.57,3.2,1.02,1,1.99,1.86,2.17,1.91.79.2,1.63-.64,1.43-1.41-.05-.18-.92-1.14-1.94-2.14-2.16-2.12-2.5-2.28-3.24-1.55ZM48.21,8.14c-.52.22-3.99,3.79-3.99,4.12,0,.8.76,1.45,1.48,1.27.18-.05,1.16-.9,2.17-1.91,2.14-2.12,2.31-2.46,1.59-3.18-.45-.44-.74-.51-1.26-.3ZM26.97,9.23c-4.73.59-8.68,2.47-11.89,5.63-2.8,2.76-4.67,6.22-5.47,10.12-.36,1.75-.35,5.49.02,7.24,1.17,5.6,4.54,10.28,9.42,13.11l.67.39v5.94c0,6.6,0,6.59.95,7.3.51.39.65.41,2.12.46l1.57.05v1.35c0,1.6.19,2.14.95,2.71l.55.41,2.95.04c3.32.05,3.66-.02,4.37-.95.36-.46.39-.63.44-2.04l.05-1.54,1.56-.05c1.43-.04,1.6-.08,2.07-.43.99-.75.99-.69.99-7.32v-5.95l.45-.24c1.07-.58,2.98-2.02,4.05-3.05,4.02-3.9,6.19-9.33,5.89-14.76-.27-4.88-2.29-9.38-5.75-12.78-3.69-3.63-8.13-5.52-13.27-5.65-1.2-.03-2.4-.02-2.68.01ZM26.21,11.65c-2.54.39-5.47,1.62-7.58,3.17-6.79,5-8.95,14.03-5.14,21.47,1.58,3.08,4.48,5.97,7.5,7.48.42.21.82.5.91.65.08.15.15,1.02.15,1.93v1.65h5.8v-5.22l-1.66-1.63c-.91-.9-1.7-1.79-1.75-1.98-.2-.8.62-1.61,1.4-1.38.19.05.97.72,1.75,1.47l1.41,1.38,1.41-1.38c.78-.76,1.57-1.42,1.75-1.47.78-.23,1.61.58,1.4,1.38-.05.2-.84,1.09-1.75,1.98l-1.66,1.63v5.22h5.8v-1.65c0-.91.06-1.77.14-1.91.08-.14.63-.52,1.22-.84,3.87-2.09,6.86-5.64,8.2-9.71.64-1.94.81-3.06.81-5.31,0-1.19-.09-2.5-.2-3.07-1.86-9.26-10.53-15.29-19.91-13.85ZM.36,27.79c-.22.22-.36.51-.36.79s.13.57.36.79c.35.35.38.35,3.12.35s2.77,0,3.12-.35c.22-.22.36-.51.36-.79s-.13-.57-.36-.79c-.35-.35-.38-.35-3.12-.35s-2.77,0-3.12.35ZM51.4,27.79c-.22.22-.36.51-.36.79s.13.57.36.79c.35.35.38.35,3.12.35s2.77,0,3.12-.35c.22-.22.36-.51.36-.79s-.13-.57-.36-.79c-.35-.35-.38-.35-3.12-.35s-2.77,0-3.12.35ZM11.96,43.85c-.24.15-1.17,1-2.06,1.89-1.92,1.92-2.08,2.27-1.36,2.99.73.72,1.09.56,3.1-1.41,2.29-2.24,2.46-2.58,1.7-3.33-.49-.49-.79-.52-1.39-.15ZM44.65,44c-.48.47-.52.71-.22,1.27.28.53,3.56,3.68,3.96,3.81.72.22,1.63-.68,1.41-1.39-.12-.39-3.32-3.62-3.86-3.9-.57-.29-.81-.25-1.29.22ZM22.04,51.44v1.14h13.92v-2.29h-13.92v1.14ZM22.04,56.01v1.14h13.92v-2.29h-13.92v1.14ZM26.68,60.59v1.14h4.64v-2.29h-4.64v1.14Z"/></svg>