<?xml version="1.0" encoding="UTF-8"?><svg id="Layer_1" xmlns="http://www.w3.org/2000/svg" width="70" height="70" xmlns:xlink="http://www.w3.org/1999/xlink" viewBox="0 0 70 70"><defs><style>.cls-1{fill:none;}.cls-2{fill:#0070b0;}.cls-3{clip-path:url(#clippath);}</style><clipPath id="clippath"><rect class="cls-1" width="70" height="70"/></clipPath></defs><g class="cls-3"><path class="cls-2" d="M68.54,32.08c-.81,0-1.46-.65-1.46-1.46,0-15.28-12.43-27.71-27.71-27.71-.81,0-1.46-.65-1.46-1.46s.65-1.46,1.46-1.46c16.89,0,30.62,13.74,30.62,30.62,0,.81-.65,1.46-1.46,1.46ZM58.33,30.62c0-10.45-8.51-18.96-18.96-18.96-.81,0-1.46.65-1.46,1.46s.65,1.46,1.46,1.46c8.85,0,16.04,7.2,16.04,16.04,0,.81.65,1.46,1.46,1.46s1.46-.65,1.46-1.46ZM64.85,64.96l2.85-3.28c1.48-1.48,2.3-3.45,2.3-5.55s-.82-4.07-2.44-5.67l-7.13-5.46c-3.06-3.06-8.03-3.06-11.09,0l-4.47,4.36c-10.73-4.37-19.48-13.12-24.19-24.22l4.34-4.45c3.06-3.06,3.06-8.04.13-10.96l-5.71-7.42c-2.97-2.97-8.2-2.9-11.02-.07l-3.42,2.99C1.76,8.42,0,12.75,0,17.43c0,22.6,29.97,52.57,52.57,52.57,4.68,0,9.01-1.76,12.28-5.04ZM17.23,4.22l5.71,7.42c1.92,1.92,1.92,5.05-.01,6.99l-5.02,5.15c-.4.41-.52,1.03-.31,1.56,5.04,12.56,14.91,22.42,27.08,27.07.53.2,1.13.08,1.54-.32l5.15-5.02s0,0,.01-.01c1.86-1.87,4.97-1.99,7.12.13l7.13,5.46c1.92,1.92,1.92,5.05-.07,7.05l-2.86,3.28c-2.65,2.65-6.25,4.12-10.15,4.12C31.69,67.08,2.92,38.31,2.92,17.43c0-3.89,1.46-7.5,4.05-10.08l3.43-2.99c.98-.98,2.27-1.46,3.54-1.46s2.42.44,3.3,1.32h0Z"/></g></svg>