<?xml version="1.0" encoding="UTF-8"?><svg id="Layer_1" xmlns="http://www.w3.org/2000/svg" width="60" height="64" viewBox="0 0 60 64"><defs><style>.cls-1{fill:#0070b0;fill-rule:evenodd;}</style></defs><path class="cls-1" d="M37.31.23c-1.27.44-1.89.92-3.27,2.52-.49.56-1,1.01-1.38,1.19-.56.28-.74.3-2.85.3h-2.25s-.81.4-.81.4c-1.54.74-2.77,2.21-3.19,3.8-.16.61-.18,1.1-.12,2.43.13,2.56.08,2.66-2.46,5.08-1.11,1.06-1.74,2.54-1.74,4.12v.72l-1.03-.06c-1.36-.08-2.61.19-3.97.87-1.98.98-3.63,3.05-4.19,5.25-.26,1.02-.26,2.96,0,3.99.59,2.28,2.16,4.24,4.29,5.33,1.2.62,2.23.81,3.91.75,1.22-.05,1.58-.11,2.38-.43,1.22-.49,2.31-1.25,3.14-2.19l.67-.75.77.74c1.39,1.32,2.88,1.79,4.86,1.52,1.93-.26,2.93.16,4.28,1.81,1.4,1.72,2.73,2.4,4.66,2.4s3.26-.69,4.66-2.4c1.34-1.65,2.35-2.07,4.28-1.81,1.98.27,3.47-.2,4.87-1.52,1.48-1.41,1.88-2.6,1.75-5.22l-.08-1.74.38-.82c.31-.68.55-.97,1.37-1.66,1.1-.93,1.47-1.36,1.94-2.3,1.1-2.21.63-4.89-1.14-6.58-2.54-2.42-2.58-2.52-2.46-5.08.07-1.33.04-1.82-.12-2.43-.41-1.59-1.65-3.06-3.19-3.8l-.81-.39h-2.25c-2.2,0-2.26-.01-2.9-.35-.4-.21-.93-.67-1.38-1.2-1.37-1.6-1.92-2.03-3.15-2.45-.97-.33-2.56-.34-3.45-.03ZM38.1,1.91c-1.04.27-1.75.82-2.77,2.2-.52.69-1.58,1.43-2.54,1.75-.75.25-.98.27-2.53.2-1.95-.09-2.6.03-3.47.69-1.1.82-1.59,1.93-1.52,3.42.03.53.04,1.41.03,1.97-.03,1.8-.7,3.07-2.38,4.51-1.3,1.12-1.68,1.75-1.76,2.97-.1,1.53-.02,1.74.87,2.3,1.62,1.02,2.92,2.74,3.5,4.63.24.77.29,1.22.28,2.35,0,.81-.09,1.68-.2,2.07-.18.66-.18.68.15,1.21.39.62.94,1.13,1.68,1.52.48.26.66.28,2.45.25,2.79-.05,3.86.32,5.21,1.8.39.43.93,1.01,1.2,1.31.77.84,1.45,1.12,2.72,1.12s1.95-.28,2.72-1.12c.27-.29.81-.88,1.2-1.31,1.35-1.48,2.43-1.85,5.22-1.8,1.67.03,1.99,0,2.4-.2,1.19-.6,2.16-1.94,2.24-3.07.02-.28,0-1.05-.06-1.71-.19-2.43.29-3.57,2.28-5.45,1.72-1.62,1.94-2.07,1.87-3.71-.07-1.4-.39-1.98-1.76-3.16-1.69-1.45-2.36-2.72-2.38-4.51,0-.56,0-1.5.03-2.1.03-.92,0-1.17-.25-1.71-.37-.8-1.2-1.65-1.96-2.01-.54-.25-.75-.27-2.59-.24-1.75.03-2.09,0-2.75-.22-1.03-.36-1.95-1.03-2.68-1.96-.84-1.07-1.23-1.42-1.9-1.72-.68-.31-1.85-.43-2.51-.26ZM37.74,6.99c-2.79.24-5.77,1.67-7.81,3.74-6.3,6.4-4.53,17.12,3.5,21.08.63.31,1.71.72,2.4.9,1.08.29,1.49.33,3.18.33s2.09-.04,3.18-.33c5.04-1.35,8.75-5.53,9.58-10.79.21-1.31.09-3.79-.24-5.06-1.45-5.63-6.18-9.59-11.83-9.91-.48-.03-1.36,0-1.95.04ZM37.21,8.88c-4.45.82-7.92,4.09-8.99,8.48-.38,1.55-.37,3.86.01,5.35.31,1.2.83,2.43,1.41,3.34l.38.61.37-.79c.95-2.05,2.57-3.69,4.6-4.66l.75-.36-.38-.37c-.21-.2-.58-.78-.83-1.29-1.94-3.98,1.85-8.39,6.01-7,2.89.96,4.26,4.25,2.92,7-.25.51-.62,1.09-.83,1.29l-.38.37.75.36c2.02.97,3.64,2.61,4.6,4.66l.37.79.38-.61c1.87-2.96,2.23-6.88.95-10.21-.95-2.46-3-4.71-5.39-5.93-1.4-.71-2.79-1.05-4.54-1.1-.86-.03-1.83,0-2.17.07ZM38.36,13.8c-.18.03-.63.24-1,.46-.76.46-1.4,1.4-1.53,2.24-.33,2.11,1.6,4.07,3.67,3.73,1.7-.28,3.01-2.17,2.64-3.84-.39-1.76-2.06-2.91-3.79-2.61ZM38.25,22.17c-2.13.36-3.44.99-4.68,2.26-.92.94-1.67,2.19-1.95,3.24-.13.51-.12.58.14.87.89.96,3.21,2.13,4.99,2.52,1.13.24,3.35.24,4.48,0,1.78-.38,4.1-1.55,4.99-2.52.27-.29.28-.36.14-.87-.49-1.86-2.1-3.79-3.89-4.65-.58-.28-1.3-.57-1.61-.64-.67-.16-2.19-.28-2.63-.2ZM17,22.61c-2.01.27-3.88,1.64-4.74,3.49-1.18,2.53-.68,5.36,1.29,7.28,1.98,1.94,4.69,2.33,7.17,1.05,1.46-.75,2.56-2.1,3.05-3.72.21-.71.25-1.12.21-2.19-.05-1.24-.08-1.37-.57-2.39-1.22-2.5-3.72-3.88-6.41-3.52ZM18.61,27.64c-1.09,1.1-1.99,1.97-2.02,1.94-.02-.03-.29-.48-.59-1.01-.61-1.06-.8-1.26-1.23-1.27-.36,0-.9.53-.9.9,0,.29,1.49,3.03,1.92,3.51.16.18.39.29.64.29.33,0,.71-.33,2.85-2.51,2.17-2.2,2.47-2.56,2.47-2.91,0-.45-.47-.93-.91-.93-.16,0-.97.72-2.23,1.99ZM18.31,37.41c-1.22.3-1.9.54-2.82,1.01-1.98,1.01-4.36,3.02-6.67,5.63l-1.35,1.53-.91-.07c-1.48-.11-1.59-.05-4.23,2.61-2.02,2.03-2.34,2.41-2.34,2.75s.75,1.14,6.28,6.77c5.44,5.52,6.33,6.38,6.65,6.38s.72-.36,2.6-2.25c2.58-2.6,2.78-2.91,2.7-4.21l-.05-.87.69-.22c2.26-.73,5.41-.86,10.72-.45,7.06.55,9.82.28,13.54-1.33,3.88-1.68,12.49-6.94,15.15-9.24.75-.65,1.05-1.01,1.36-1.66.35-.73.39-.92.35-1.65-.07-1.09-.51-1.77-1.48-2.27-.61-.32-.8-.35-1.64-.32-.9.04-1.04.09-2.44.84-3.25,1.76-7.58,3.83-10.95,5.24l-1.47.61v-.61c0-.88-.32-1.71-.95-2.41-.85-.97-1.4-1.14-3.92-1.28-3.84-.21-6.1-.77-10.62-2.6-3.92-1.59-4.84-1.86-6.57-1.92-.76-.02-1.49-.02-1.63.02ZM18.75,39.24c-1.3.17-2.63.77-4.25,1.91-.97.69-5.63,5.33-5.63,5.61,0,.09,1.83,2.02,4.08,4.3l4.08,4.14.89-.35c2.61-1.03,5.71-1.2,11.78-.67,3.39.3,7.42.3,8.85,0,2.43-.5,4.32-1.28,7.81-3.21,5.16-2.87,10.51-6.42,11.41-7.58.64-.82.57-1.69-.14-2-.53-.22-1.16-.07-2.24.52-4.54,2.5-11.44,5.63-15.19,6.88-2.17.72-3.05.87-5.23.87-3.01,0-6.23-.56-8.05-1.4-.61-.28-.8-.43-.86-.7-.21-.84.45-1.41,1.24-1.08,2.03.85,4.65,1.31,7.53,1.33,3.08.02,4.35-.32,5.1-1.34.31-.42.32-1.37.03-1.83-.41-.64-.81-.77-2.69-.86-4.1-.19-6.75-.85-11.88-2.95-3.51-1.44-4.99-1.79-6.62-1.58ZM3.91,49.04l-1.79,1.81,5.41,5.5,5.41,5.5,1.78-1.82c1.59-1.63,1.78-1.87,1.78-2.25s-.37-.81-4.97-5.48c-4.6-4.67-5-5.05-5.4-5.05s-.62.19-2.22,1.81Z"/></svg>