<?xml version="1.0" encoding="UTF-8"?><svg id="Layer_1" xmlns="http://www.w3.org/2000/svg" width="60" height="65" viewBox="0 0 60 65"><defs><style>.cls-1{fill:#0070b0;fill-rule:evenodd;}</style></defs><path class="cls-1" d="M8.12.29c-.34.28-5.05,5.9-5.47,6.53-.45.69-.15,1.73.61,2.05.24.1.75.19,1.13.19h.7l.04,6.25.04,6.25.3.43c.53.76.77.82,3.41.82s3.05-.09,3.5-.85c.25-.41.26-.64.26-6.65v-6.22l.96-.05c.86-.04,1-.09,1.34-.45.55-.56.62-1.17.21-1.78-.53-.8-5.32-6.51-5.57-6.66-.4-.22-1.09-.15-1.46.14ZM29.91.2c-.3.1-1.16.63-1.9,1.19-.75.56-1.54,1.09-1.75,1.18-.22.09-1.18.22-2.13.29-1.4.1-1.87.19-2.43.45-1.5.7-2.06,1.56-2.66,4.03-.22.89-.49,1.78-.6,1.96-.11.18-.8.92-1.52,1.64-1.62,1.62-1.91,2.25-1.82,3.93.05.97.12,1.17.85,2.69l.8,1.64-.11,1.44c-.2,2.68-.15,3.45.24,4.28.44.92,1.12,1.56,2.23,2.11.47.23.88.43.9.44.02.01-.88,2.06-2.01,4.55-2.22,4.89-2.31,5.22-1.72,5.7.43.35.55.35,3.13-.13,1.2-.22,2.19-.38,2.21-.36.02.02.53.92,1.14,2.01,1.17,2.07,1.56,2.55,2.05,2.55.62,0,.93-.54,3-5.11l2.04-4.52.64-.17c.54-.14.78-.14,1.47.03,1.69.4,1.48.13,3.11,4.01.9,2.15,1.57,3.57,1.76,3.75.38.35.94.38,1.29.07.14-.13.78-1.11,1.44-2.19.65-1.08,1.2-1.98,1.22-2.01.02-.02,1.02.17,2.22.43,1.2.26,2.35.47,2.54.47.46,0,.96-.53.95-1.01,0-.2-.73-2.1-1.63-4.23-.9-2.13-1.66-3.93-1.69-4.01s.21-.29.53-.45c.73-.37,1.53-1.25,1.89-2.06.31-.69.35-1.82.17-4.21l-.11-1.38.81-1.64.81-1.64v-1.31c0-1.21-.02-1.36-.38-2.02-.23-.43-.82-1.12-1.5-1.77-.62-.58-1.23-1.24-1.36-1.45-.13-.22-.42-1.13-.64-2.03-.61-2.49-1.17-3.33-2.66-4.03-.55-.26-1.02-.35-2.3-.44-.89-.06-1.82-.17-2.06-.24-.25-.07-1.06-.59-1.81-1.16-.75-.57-1.64-1.13-1.97-1.25-.72-.25-1.95-.26-2.7-.02ZM52.55.44c-.83.81-5.21,6.19-5.39,6.63-.24.57-.13,1.07.35,1.54.34.33.49.38,1.33.43l.95.05v6.22c0,6.01,0,6.24.26,6.65.46.76.83.85,3.53.85,2.16,0,2.45-.03,2.81-.26.9-.56.86-.29.91-7.24l.04-6.26h.7c.39,0,.9-.08,1.14-.19.75-.32,1.07-1.37.62-2.04-.42-.63-5.16-6.28-5.49-6.54-.52-.42-1.23-.36-1.76.16ZM30.61,2.23c-.2.06-.86.5-1.47.96-2.04,1.55-2.2,1.62-4.6,1.8-1.83.14-2.22.27-2.75.91-.37.45-.36.43-.73,2.1-.44,1.98-.82,2.67-2.24,4.05-1.28,1.25-1.71,1.89-1.71,2.58,0,.23.3,1.04.7,1.87,1.08,2.25,1.16,2.64.96,4.6-.21,2.18-.2,2.55.14,3.11.22.37.52.59,1.38.99,2.91,1.37,2.96,1.41,4.33,3.48,1.47,2.22,1.74,2.31,4.37,1.54.91-.27,1.84-.46,2.23-.46s1.33.19,2.23.46c2.62.77,2.9.68,4.4-1.59,1.22-1.83,1.7-2.24,3.54-3.06,1.63-.72,1.82-.84,2.14-1.38.33-.55.35-.95.14-3.02-.21-2.04-.13-2.4.95-4.67.4-.83.7-1.64.7-1.87,0-.69-.43-1.33-1.7-2.57-1.44-1.39-1.72-1.91-2.24-4.07-.62-2.59-.86-2.79-3.49-2.99-.93-.07-1.91-.19-2.17-.27-.44-.13-1.34-.71-3.04-1.96-.75-.55-1.45-.73-2.08-.53ZM7.1,4.73l-1.74,2.1h.59c.48,0,.66.07.96.38l.37.38v13.12h3.32v-6.59c0-6.44,0-6.6.26-6.88.26-.29.52-.38,1.2-.45.36-.04.33-.08-1.33-2.1-.94-1.13-1.74-2.06-1.79-2.06s-.88.94-1.83,2.1ZM51.72,4.69c-1.66,2.01-1.7,2.06-1.34,2.1.68.07.94.16,1.2.45.25.28.26.44.26,6.88v6.59h3.32V7.62l.3-.36c.23-.28.45-.38.94-.43l.64-.07-1.71-2.06c-.94-1.13-1.75-2.06-1.8-2.06s-.86.93-1.8,2.06ZM29.24,6.37c-3.4.74-6.22,3.25-7.41,6.59-.93,2.62-.78,5.38.45,7.94,1.71,3.59,5.04,5.72,8.94,5.72,6.93,0,11.71-6.94,9.4-13.65-.47-1.37-1.05-2.32-2.12-3.5-2.38-2.63-5.95-3.82-9.26-3.1ZM30.36,8.42c-3.27.33-6.04,2.86-6.81,6.2-.3,1.3-.2,3.24.23,4.42.44,1.23,1.06,2.22,1.9,3.08,3.81,3.89,10.12,2.84,12.57-2.1,1.14-2.3,1.08-5.26-.16-7.55-.26-.49-.86-1.26-1.37-1.78-1.74-1.76-3.88-2.52-6.36-2.27ZM32.27,15.13l-2.73,2.54-.96-.96c-.53-.53-1.12-1-1.32-1.05-.76-.2-1.51.65-1.22,1.38.21.51,2.81,3.11,3.22,3.22.19.05.46.02.61-.06.4-.22,6.3-5.75,6.48-6.08.23-.42.2-.68-.17-1.12-.25-.3-.44-.4-.76-.4-.37,0-.76.31-3.16,2.54ZM40.71,28.34c-.19.16-.74.92-1.23,1.68-1.13,1.74-1.72,2.28-2.97,2.66l-.46.14.78,1.87c.43,1.03.83,1.85.89,1.83.06-.02.49-.68.97-1.47.51-.85.99-1.5,1.19-1.6.27-.14.6-.11,2,.18.92.19,1.71.32,1.74.28.07-.08-2.37-5.87-2.48-5.87-.04,0-.23.13-.42.29ZM20.35,32.01c-.85,1.89-1.54,3.45-1.52,3.47.02.02.66-.08,1.42-.23,1.57-.29,2.13-.32,2.48-.13.13.07.62.81,1.09,1.65.47.83.9,1.47.96,1.41.06-.06.62-1.26,1.26-2.66l1.16-2.55-.76-.16c-1.57-.33-2.21-.85-3.47-2.79-.51-.79-.96-1.43-1-1.43-.04,0-.77,1.55-1.62,3.44ZM16.73,42.51c-1.12.3-2.02.76-5.63,2.9-1.87,1.11-3.48,2.04-3.58,2.08-.11.04-.35-.21-.64-.69-.55-.9-1.15-1.26-2.09-1.26-.55,0-.86.13-2.17.89-1.71.99-2.29,1.49-2.5,2.15-.32,1-.22,1.24,3.53,8.05,4.34,7.89,4.26,7.75,4.9,8.08.94.49,1.53.38,3.27-.6,1.99-1.12,2.41-1.52,2.62-2.51.13-.58-.05-1.32-.51-2.12l-.38-.66.6-.35.6-.35,4.15,1.14c8.46,2.33,7.82,2.18,9.32,2.12,1.04-.04,1.51-.13,2.11-.38,1.24-.52,17.4-10.77,17.96-11.39.58-.65.9-1.59.89-2.67-.01-2.31-1.8-3.89-4.17-3.7-1.71.14-2.38.46-8.37,4.05-4.47,2.67-5.1,3.03-5.17,2.96-.02-.02.02-.32.1-.66.28-1.26-.3-2.63-1.53-3.59-.41-.32-.87-.5-2.02-.77-1.55-.37-3.54-1.01-6.75-2.16-2.15-.77-3.31-.93-4.55-.6ZM16.73,44.79c-.39.13-.9.35-1.15.48-.36.19-6.99,4.1-7.12,4.2-.02.02.89,1.71,2.02,3.76l2.06,3.73.85-.51c.47-.28,1-.51,1.19-.51s3.01.74,6.27,1.63c3.27.9,6.25,1.67,6.64,1.72.77.09,1.79-.1,2.52-.48.25-.13,4.1-2.54,8.55-5.36,8.53-5.39,8.55-5.41,8.55-6.33,0-.55-.32-1.23-.69-1.48-.47-.32-1.93-.2-2.95.23-.43.18-2.97,1.64-5.66,3.25-2.69,1.61-5.24,3.07-5.67,3.25-1.1.47-2.99.54-4.7.18-2.44-.51-6.16-1.64-6.46-1.95-.58-.6-.14-1.75.68-1.75.19,0,1.49.32,2.89.72,2.98.84,3.65.95,4.2.72.8-.34,1.02-1.54.41-2.22-.31-.35-.61-.46-2.33-.91-1.09-.28-3.24-.97-4.79-1.53-3.2-1.16-4.03-1.29-5.3-.86ZM3.45,48.42c-.67.39-1.23.8-1.25.91-.04.18,6.97,13.04,7.3,13.39.12.13.44,0,1.48-.6.73-.42,1.35-.82,1.37-.89.07-.21-7.3-13.47-7.5-13.5-.1-.01-.73.29-1.4.69ZM3.81,49.49c-.11.13-.23.34-.27.47-.11.32.23.97.56,1.07.94.31,1.64-.85.94-1.57-.27-.28-.99-.26-1.23.02Z"/></svg>