<?xml version="1.0" encoding="UTF-8"?><svg id="Layer_1" xmlns="http://www.w3.org/2000/svg" width="70" height="71.01" xmlns:xlink="http://www.w3.org/1999/xlink" viewBox="0 0 70 71.01"><defs><style>.cls-1{fill:none;}.cls-2{fill:#0070b0;}.cls-3{clip-path:url(#clippath);}</style><clipPath id="clippath"><rect class="cls-1" y="0" width="70" height="71"/></clipPath></defs><g class="cls-3"><path class="cls-2" d="M68.54,32.54c-.81,0-1.46.66-1.46,1.48v13.31h-21.27l-16.65-16.88V2.96h7.29c.81,0,1.46-.66,1.46-1.48S37.26,0,36.46,0H13.13C5.89,0,0,5.98,0,13.32v44.37c0,7.34,5.89,13.31,13.13,13.31h43.75c7.24,0,13.12-5.97,13.12-13.31v-23.66c0-.82-.65-1.48-1.46-1.48ZM13.13,2.96h13.12v27.19L2.92,41.98V13.32C2.92,7.61,7.5,2.96,13.13,2.96ZM2.92,57.69v-12.4l24.5-12.43,15.9,16.12-13.01,19.05H13.13c-5.63,0-10.21-4.64-10.21-10.35ZM56.88,68.04h-23.02l12.12-17.75h21.11v7.4c0,5.71-4.58,10.35-10.21,10.35ZM53.96,22.19c3.22,0,5.83-2.65,5.83-5.92s-2.62-5.92-5.83-5.92-5.83,2.65-5.83,5.92,2.62,5.92,5.83,5.92ZM53.96,13.32c1.61,0,2.92,1.33,2.92,2.96s-1.31,2.96-2.92,2.96-2.92-1.33-2.92-2.96,1.31-2.96,2.92-2.96ZM42.66,27.71l5.75,5.36c1.49,1.47,3.46,2.28,5.55,2.28s4.06-.81,5.52-2.26l5.82-5.43c3.03-3.06,4.7-7.13,4.7-11.46s-1.67-8.4-4.7-11.46c-3.03-3.06-7.06-4.74-11.34-4.74s-8.31,1.68-11.34,4.74c-3.03,3.06-4.7,7.13-4.7,11.46s1.67,8.4,4.74,11.51ZM44.67,6.85c2.48-2.51,5.78-3.88,9.29-3.88s6.8,1.38,9.28,3.88c2.48,2.5,3.84,5.83,3.84,9.37s-1.37,6.86-3.8,9.32l-5.81,5.42c-1.88,1.87-5.11,1.9-7.06-.03l-5.74-5.35c-2.48-2.5-3.84-5.83-3.84-9.37s1.37-6.86,3.84-9.36Z"/></g></svg>