<?xml version="1.0" encoding="UTF-8"?>
<svg xmlns="http://www.w3.org/2000/svg" version="1.1" viewBox="0 0 24 24">
  <defs>
    <style>
      .cls-1 {
        fill: none;
        stroke: #0070b0;
        stroke-linecap: round;
        stroke-linejoin: round;
        stroke-width: 1.5px;
      }
    </style>
  </defs>
  <!-- Generator: Adobe Illustrator 28.7.3, SVG Export Plug-In . SVG Version: 1.2.0 Build 164)  -->
  <g>
    <g id="Layer_1">
      <path class="cls-1" d="M12.8,15l3-3M15.8,12l-3-3M15.8,12h-7.5M21,12c0,1.2-.2,2.4-.7,3.4-.5,1.1-1.1,2.1-2,2.9-.8.8-1.8,1.5-2.9,2-1.1.5-2.3.7-3.4.7s-2.4-.2-3.4-.7c-1.1-.5-2.1-1.1-2.9-2-.8-.8-1.5-1.8-2-2.9-.5-1.1-.7-2.3-.7-3.4,0-2.4.9-4.7,2.6-6.4,1.7-1.7,4-2.6,6.4-2.6s4.7.9,6.4,2.6c1.7,1.7,2.6,4,2.6,6.4Z"/>
    </g>
  </g>
</svg>