<?xml version="1.0" encoding="UTF-8"?><svg id="Layer_2" xmlns="http://www.w3.org/2000/svg" width="149.87" height="51.6" viewBox="0 0 149.87 51.6"><defs><style>.cls-1{fill:#fff;}.cls-2{fill:#0070b0;}.cls-3{fill:#ee3324;}</style></defs><g id="Layer_1-2"><g id="Layer_1-3"><g id="Layer_2-2"><g id="Layer_1-2"><path class="cls-1" d="M1.6,42.8c.1-.6.3-1.2.4-1.7h58v.1c-.2,1-.83,1.5-1.9,1.5H1.6v.1Z"/><path class="cls-1" d="M63.5,26.8c-.2.6-.3,1.1-.4,1.7H5c0-.5.2-.9.3-1.4,0-.1.3-.3.4-.3h57.8Z"/><path class="cls-1" d="M61.8,34c-.1.5-.2.9-.3,1.3,0,.2-.2.3-.4.3H3.3l.4-1.7h58l.1.1Z"/><path class="cls-1" d="M6.7,21.4c.2-1.13.8-1.7,1.8-1.7h56.6c-.1.5-.2,1-.3,1.4,0,.1-.2.2-.4.3h-.5s-57.2,0-57.2,0Z"/><path class="cls-1" d="M0,49.9l.4-1.6h58c-.1.5-.2,1-.3,1.4,0,.1-.2.2-.4.2H0Z"/><path class="cls-2" d="M118.1,39.7c.1-.5.2-1,.3-1.4.8-3.5,1.6-7,2.4-10.4.7-2.9,1.3-5.7,2-8.6,0-.2.2-.4.4-.4h6.6c.9,0,1.7.2,2.5.7,1,.7,1.4,1.6,1.1,2.8-.2.8-.4,1.5-.5,2.2-.3,1.8-1.4,2.8-3,3.3-.4.1-.7.3-1.2.4.5.2.8.3,1.1.4,1.4.5,1.8,1.3,1.4,2.7-.4,1.9-.9,3.9-1.3,5.8-.1.8,0,1.6,0,2.4h-4.3c-.5,0-.6,0-.7-.7,0-1.1.2-2.1.4-3.1.4-1.7.8-3.4,1.2-5.1.2-.9-.5-1.5-1.3-1.2-.1,0-.2.3-.3.4-.4,1.6-.7,3.1-1.1,4.7s-.7,3.1-1.1,4.6c0,.1-.2.3-.3.3h-4.6l.3.2ZM125.9,27.2c1.1.2,1.8-.2,2-1,.3-1.2.6-2.3.8-3.5.2-.9-.1-1.3-1.1-1.3s-.3,0-.4,0c-.4,1.9-.9,3.8-1.3,5.8h0Z"/><path class="cls-2" d="M108.5,39.6c.1-1.8.3-3.7.4-5.6h-2.3c-.1,0-.3.2-.3.4-.6,1.6-1.3,3.3-1.9,4.9,0,.2-.2.4-.5.4h-4.4c.3-.7.5-1.3.8-1.9.8-1.8,1.5-3.6,2.3-5.4,1.1-2.6,2.1-5.1,3.2-7.7.7-1.8,1.4-3.5,2.1-5.2,0-.3.4-.5.7-.5h5.7v1.6c0,.7-.1,1.5-.2,2.2v2.7c0,1.8-.2,3.5-.3,5.3,0,1.1-.1,2.2-.2,3.3,0,1.8-.2,3.5-.3,5.3,0,.2-.2.4-.3.4h-4.5v-.2ZM109.9,25h-.2c-.7,2.1-1.4,4.2-2.2,6.3h1.6c.3-2.1.5-4.2.7-6.3h.1Z"/><path class="cls-2" d="M78.9,25.9c.3-1.2.5-2.3.8-3.5,0-.4.2-.7-.2-.9-.4-.2-.9,0-1.3.2-.1.1-.2.2-.2.4-.2.7-.3,1.3-.5,2-.2.9.2,1.7.8,2.3,1.1,1.3,2.2,2.6,3.2,4,.5.7.7,1.6.5,2.5-.3,1.2-.5,2.4-.9,3.6-.5,1.7-1.8,2.7-3.5,3.1-1.8.4-3.7.4-5.5,0-1.2-.3-2.1-1-2.3-2.3,0-.5,0-1.1.2-1.6.3-1.3.6-2.5.8-3.8,0-.3.2-.5.5-.5h3.4c1.1,0,.3,0,.5,0-.3,1.1-.5,2.2-.8,3.2,0,.4-.2.8-.3,1.1-.2.7,0,1,.5,1.2s1.3-.1,1.4-.6c.3-1.1.7-2.3.7-3.5,0-.3-.1-.5-.3-.8-1.1-1.4-2.2-2.7-3.3-4.1-.5-.6-1-1.3-1-2.1,0-.5,0-1,.2-1.5.2-.8.3-1.5.5-2.2.4-1.5,1.4-2.5,2.9-3,1.8-.6,3.8-.7,5.7-.3,1.8.4,2.5,1.6,2.1,3.4-.2,1-.5,2-.7,3,0,.4-.3.5-.7.5h-3.9l.7.2Z"/><path class="cls-2" d="M146.8,26.1h-1.8c-.3,0-.4,0-.3-.4.3-1.1.5-2.2.8-3.4,0-.4.2-.8-.3-.9-.7-.2-1.1,0-1.3.6-.3,1.3-.6,2.6-.9,3.8l-2.3,9.9c0,.2,0,.3-.1.5,0,.3-.2.7.1.8.3.1.7.1,1.1,0,.2,0,.3-.4.4-.6.4-1.5.7-3,1.1-4.6,0-.2.2-.4.4-.4h3.6c.3,0,.4,0,.3.4-.4,1.5-.7,3-1,4.4-.3,1.2-1,2-2,2.5-1.1.7-2.4,1-3.7,1s-2.6,0-3.8-.6c-.9-.4-1.4-1.1-1.5-2.1,0-.4,0-.8.2-1.2.6-2.4,1.1-4.9,1.7-7.3.4-1.9.9-3.8,1.3-5.7.5-2.2,1.9-3.5,4-3.9,1-.2,1.9-.3,2.9-.3s1.9.1,2.8.5c1.3.6,1.5,1.6,1.3,2.8-.2,1.2-.6,2.4-.8,3.7,0,.3-.3.4-.6.4h-1.7l.1.1Z"/><path class="cls-2" d="M85.5,39.6c.3-1.4.7-2.7,1-4.1.9-4.1,1.9-8.1,2.8-12.2.3-1.3.6-2.6.9-4,0-.3.3-.5.5-.5h5.9c1,0,2,.2,3,.5,1.3.4,1.5,1.5,1.2,2.7-.4,2.2-1,4.4-1.5,6.5-.4,1.5-1.5,2.4-2.9,3-.6.2-1.1.3-1.7.3h-2.4c-.3,0-.4.1-.5.4-.4,2-.9,4-1.4,6,0,.3-.1.7-.3,1,0,.1-.2.3-.3.3h-4.5l.2.1ZM94.4,21.6c-.6,2.5-1.2,5-1.7,7.4,1.1.2,1.9-.2,2.1-1,.4-1.8.8-3.6,1.3-5.3.1-.4-.1-.9-.5-1h0c-.3,0-.7-.1-1-.1h-.2Z"/><polygon class="cls-3" points="63.6 5.4 69.3 5.3 71 0 72.9 5.4 78.4 5.4 74 8.7 75.7 14.2 71 10.9 66.4 14 68.1 8.8 63.6 5.4"/><path class="cls-1" d="M72.6,51.2c-.8.3-1.5.4-2.3.4-1,0-1.8-.3-2.4-.8-.6-.6-.9-1.4-.9-2.2,0-1.3.5-2.5,1.5-3.3.9-.7,2-1.1,3.2-1.1.7,0,1.3,0,1.9.3l-.5,1.3c-.5-.2-1-.3-1.5-.3-1.5,0-2.8,1.1-2.9,2.6v.3c0,1.2.7,1.8,1.9,1.8.3,0,.5,0,.8-.1l.3-1.5h-1.1l.3-1.2h2.6l-.7,3.8h-.2Z"/><path class="cls-1" d="M83.3,44.3h1.6l-1.1,5.9h2.8l-.3,1.4h-4.3l1.4-7.2-.1-.1Z"/><path class="cls-1" d="M102,47.1c0,1.3-.5,2.6-1.3,3.4-.7.7-1.7,1.1-2.7,1-1.9,0-2.9-1.3-2.9-3s.5-2.6,1.3-3.4c.7-.7,1.7-1,2.6-1,1.9,0,2.9,1.3,2.9,3h.1ZM97.6,46c-.6.6-.9,1.7-.9,2.6s.5,1.8,1.5,1.8c.5,0,.9-.2,1.2-.5.6-.6.9-1.8.9-2.6s-.3-1.8-1.5-1.8c-.5,0-.9.2-1.2.5Z"/><path class="cls-1" d="M111.8,44.4c.6-.1,1.3-.2,1.9-.2.8,0,1.3,0,1.8.4.5.2.8.8.8,1.3,0,.9-.7,1.5-1.5,1.7h0c.7.2,1.2.9,1.1,1.6,0,.7-.4,1.4-1,1.7-.6.4-1.5.6-2.7.6-.6,0-1.2,0-1.8-.1l1.3-7h.1ZM112.2,50.3h.6c.8,0,1.6-.3,1.6-1.1s-.6-.9-1.3-.9h-.5s-.4,2-.4,2ZM112.8,47.1h.5c.9,0,1.4-.4,1.4-1s-.4-.8-1-.8h-.6l-.3,1.7v.1Z"/><path class="cls-1" d="M126.7,49.6l-.9,1.9h-1.7l3.5-7.3h2l.8,7.3h-1.6v-1.9h-2.2.1ZM128.7,48.4v-1.6c-.2-.4-.2-1-.2-1.4h0c-.2.4-.4,1-.6,1.4l-.7,1.6h1.6-.1Z"/><path class="cls-1" d="M140.7,44.3h1.6l-1.1,5.9h2.8l-.3,1.4h-4.3l1.4-7.2-.1-.1Z"/></g></g></g></g></svg>