<?xml version="1.0" encoding="UTF-8"?>
<svg xmlns="http://www.w3.org/2000/svg" version="1.1" viewBox="0 0 150 206.4">
  <defs>
    <style>
      .cls-1 {
        fill: #3e3e40;
      }

      .cls-2 {
        fill: #fff;
      }

      .cls-3 {
        fill: #0070b0;
      }

      .cls-4 {
        fill: #ee3324;
      }
    </style>
  </defs>
  <!-- Generator: Adobe Illustrator 28.7.3, SVG Export Plug-In . SVG Version: 1.2.0 Build 164)  -->
  <g>
    <g id="Layer_1">
      <g id="Layer_2">
        <g id="Layer_1-2">
          <path class="cls-1" d="M1.6,120.2c.1-.6.3-1.2.4-1.7h58c0,0,0,.1,0,.1q-.3,1.5-1.9,1.5H1.6Z"/>
          <path class="cls-1" d="M63.5,104.2c-.2.6-.3,1.1-.4,1.7H5c0-.5.2-.9.3-1.4,0-.1.3-.3.4-.3.2,0,.3,0,.5,0h57.2Z"/>
          <path class="cls-1" d="M61.8,111.4c-.1.5-.2.9-.3,1.3,0,.2-.2.3-.4.3-.2,0-.4,0-.5,0H3.3l.4-1.7h58Z"/>
          <path class="cls-1" d="M6.7,98.8q.3-1.7,1.8-1.7h56.6c-.1.5-.2,1-.3,1.4,0,.1-.2.2-.4.3-.2,0-.4,0-.5,0H6.7Z"/>
          <path class="cls-1" d="M0,127.3l.4-1.6h58c-.1.5-.2,1-.3,1.4,0,.1-.2.2-.4.2-.2,0-.4,0-.7,0H0Z"/>
          <path class="cls-3" d="M118.1,117.1c.1-.5.2-1,.3-1.4.8-3.5,1.6-7,2.4-10.4.7-2.9,1.3-5.7,2-8.6,0-.2.2-.4.4-.4,0,0,0,0,0,0,2.2,0,4.4,0,6.6,0,.9,0,1.7.2,2.5.7,1,.7,1.4,1.6,1.1,2.8-.2.8-.4,1.5-.5,2.2-.3,1.8-1.4,2.8-3,3.3-.4.1-.7.3-1.2.4.5.2.8.3,1.1.4,1.4.5,1.8,1.3,1.4,2.7-.4,1.9-.9,3.9-1.3,5.8-.1.8,0,1.6,0,2.4-.2,0-.3,0-.5,0h-3.8c-.5,0-.6,0-.7-.7,0-1.1.2-2.1.4-3.1.4-1.7.8-3.4,1.2-5.1.2-.9-.5-1.5-1.3-1.2-.1,0-.2.3-.3.4-.4,1.6-.7,3.1-1.1,4.7s-.7,3.1-1.1,4.6c0,.1-.2.3-.3.3-1.5,0-3,0-4.6,0ZM125.9,104.6c1.1.2,1.8-.2,2-1,.3-1.2.6-2.3.8-3.5.2-.9-.1-1.3-1.1-1.3s-.3,0-.4,0c-.4,1.9-.9,3.8-1.3,5.8h0Z"/>
          <path class="cls-3" d="M108.5,117c.1-1.8.3-3.7.4-5.6-.8,0-1.5,0-2.3,0-.1,0-.3.2-.3.4-.6,1.6-1.3,3.3-1.9,4.9,0,.2-.2.4-.5.4h-4.2c0,0-.2,0-.2,0,.3-.7.5-1.3.8-1.9.8-1.8,1.5-3.6,2.3-5.4,1.1-2.6,2.1-5.1,3.2-7.7.7-1.8,1.4-3.5,2.1-5.2,0-.3.4-.5.7-.5,1.9,0,3.8,0,5.7,0,0,.5,0,1.1,0,1.6,0,.7-.1,1.5-.2,2.2,0,.9,0,1.8,0,2.7,0,1.8-.2,3.5-.3,5.3,0,1.1-.1,2.2-.2,3.3,0,1.8-.2,3.5-.3,5.3,0,.2-.2.4-.3.4-1.5,0-2.9,0-4.4,0,0,0,0,0-.1,0ZM109.9,102.4h-.2c-.7,2.1-1.4,4.2-2.2,6.3h1.6c.3-2.1.5-4.2.7-6.3Z"/>
          <path class="cls-3" d="M78.9,103.3c.3-1.2.5-2.3.8-3.5,0-.4.2-.7-.2-.9-.4-.2-.9,0-1.3.2-.1.1-.2.2-.2.4-.2.7-.3,1.3-.5,2-.2.9.2,1.7.8,2.3,1.1,1.3,2.2,2.6,3.2,4,.5.7.7,1.6.5,2.5-.3,1.2-.5,2.4-.9,3.6-.5,1.7-1.8,2.7-3.5,3.1-1.8.4-3.7.4-5.5,0-1.2-.3-2.1-1-2.3-2.3,0-.5,0-1.1.2-1.6.3-1.3.6-2.5.8-3.8,0-.3.2-.5.5-.5,0,0,0,0,0,0,1.1,0,2.3,0,3.4,0s.3,0,.5,0c-.3,1.1-.5,2.2-.8,3.2,0,.4-.2.8-.3,1.1-.2.7,0,1,.5,1.2s1.3-.1,1.4-.6c.3-1.1.7-2.3.7-3.5,0-.3-.1-.5-.3-.8-1.1-1.4-2.2-2.7-3.3-4.1-.5-.6-1-1.3-1-2.1,0-.5,0-1,.2-1.5.2-.8.3-1.5.5-2.2.4-1.5,1.4-2.5,2.9-3,1.8-.6,3.8-.7,5.7-.3,1.8.4,2.5,1.6,2.1,3.4-.2,1-.5,2-.7,3,0,.4-.3.5-.7.5-1.1,0-2.2,0-3.3,0-.2,0-.3,0-.6,0Z"/>
          <path class="cls-3" d="M146.8,103.5h-1.8c-.3,0-.4,0-.3-.4.3-1.1.5-2.2.8-3.4,0-.4.2-.8-.3-.9-.7-.2-1.1,0-1.3.6-.3,1.3-.6,2.6-.9,3.8l-2.3,9.9c0,.2,0,.3-.1.5,0,.3-.2.7.1.8.3.1.7.1,1.1,0,.2,0,.3-.4.4-.6.4-1.5.7-3,1.1-4.6,0-.2.2-.4.4-.4,0,0,0,0,0,0h3.6c.3,0,.4,0,.3.4-.4,1.5-.7,3-1,4.4-.3,1.2-1,2-2,2.5-1.1.7-2.4,1-3.7,1-1.3,0-2.6,0-3.8-.6-.9-.4-1.4-1.1-1.5-2.1,0-.4,0-.8.2-1.2.6-2.4,1.1-4.9,1.7-7.3.4-1.9.9-3.8,1.3-5.7.5-2.2,1.9-3.5,4-3.9,1-.2,1.9-.3,2.9-.3,1,0,1.9.1,2.8.5,1.3.6,1.5,1.6,1.3,2.8-.2,1.2-.6,2.4-.8,3.7,0,.3-.3.4-.6.4-.6,0-1.1,0-1.7,0Z"/>
          <path class="cls-3" d="M85.5,117c.3-1.4.7-2.7,1-4.1.9-4.1,1.9-8.1,2.8-12.2.3-1.3.6-2.6.9-4,0-.3.3-.5.5-.5,0,0,0,0,0,0,2,0,3.9,0,5.9,0,1,0,2,.2,3,.5,1.3.4,1.5,1.5,1.2,2.7-.4,2.2-1,4.4-1.5,6.5-.4,1.5-1.5,2.4-2.9,3-.6.2-1.1.3-1.7.3-.8,0-1.6,0-2.4,0-.3,0-.4.1-.5.4-.4,2-.9,4-1.4,6,0,.3-.1.7-.3,1,0,.1-.2.3-.3.3-1.4,0-2.9,0-4.3,0,0,0,0,0-.2,0ZM94.4,99c-.6,2.5-1.2,5-1.7,7.4,1.1.2,1.9-.2,2.1-1,.4-1.8.8-3.6,1.3-5.3.1-.4-.1-.9-.5-1,0,0,0,0,0,0-.3,0-.7-.1-1-.1Z"/>
          <path class="cls-2" d="M109.7,102.3h.2"/>
          <polygon class="cls-4" points="63.6 82.8 69.3 82.7 71 77.4 72.9 82.8 78.4 82.8 74 86.1 75.7 91.6 71 88.3 66.4 91.4 68.1 86.2 63.6 82.8"/>
          <path class="cls-1" d="M72.6,128.6c-.8.3-1.5.4-2.3.4-1,0-1.8-.3-2.4-.8-.6-.6-.9-1.4-.9-2.2,0-1.3.5-2.5,1.5-3.3.9-.7,2-1.1,3.2-1.1.7,0,1.3,0,1.9.3l-.5,1.3c-.5-.2-1-.3-1.5-.3-1.5,0-2.8,1.1-2.9,2.6,0,.1,0,.2,0,.3,0,1.2.7,1.8,1.9,1.8.3,0,.5,0,.8-.1l.3-1.5h-1.1l.3-1.2h2.6l-.7,3.8Z"/>
          <path class="cls-1" d="M83.3,121.7h1.6l-1.1,5.9h2.8l-.3,1.4h-4.3l1.4-7.2Z"/>
          <path class="cls-1" d="M102,124.5c0,1.3-.5,2.6-1.3,3.4-.7.7-1.7,1.1-2.7,1-1.9,0-2.9-1.3-2.9-3s.5-2.6,1.3-3.4c.7-.7,1.7-1,2.6-1,1.9,0,2.9,1.3,2.9,3ZM97.6,123.4c-.6.6-.9,1.7-.9,2.6s.5,1.8,1.5,1.8c.5,0,.9-.2,1.2-.5.6-.6.9-1.8.9-2.6s-.3-1.8-1.5-1.8c-.5,0-.9.2-1.2.5Z"/>
          <path class="cls-1" d="M111.8,121.8c.6-.1,1.3-.2,1.9-.2.8,0,1.3,0,1.8.4.5.2.8.8.8,1.3,0,.9-.7,1.5-1.5,1.7h0c.7.2,1.2.9,1.1,1.6,0,.7-.4,1.4-1,1.7-.6.4-1.5.6-2.7.6-.6,0-1.2,0-1.8-.1l1.3-7ZM112.2,127.7c.2,0,.4,0,.6,0,.8,0,1.6-.3,1.6-1.1s-.6-.9-1.3-.9h-.5l-.4,2ZM112.8,124.5h.5c.9,0,1.4-.4,1.4-1s-.4-.8-1-.8c-.2,0-.4,0-.6,0l-.3,1.7Z"/>
          <path class="cls-1" d="M126.7,127l-.9,1.9h-1.7l3.5-7.3h2l.8,7.3h-1.6v-1.9h-2.2ZM128.7,125.8v-1.6c-.2-.4-.2-1-.2-1.4h0c-.2.4-.4,1-.6,1.4l-.7,1.6h1.6Z"/>
          <path class="cls-1" d="M140.7,121.7h1.6l-1.1,5.9h2.8l-.3,1.4h-4.3l1.4-7.2Z"/>
        </g>
      </g>
    </g>
  </g>
</svg>