<?xml version="1.0" encoding="UTF-8"?><svg id="Layer_2" xmlns="http://www.w3.org/2000/svg" width="44.09" height="28.08" viewBox="0 0 44.09 28.08"><defs><style>.cls-1{fill:#3e3e40;}.cls-2{fill:#ee3324;}</style></defs><g id="Layer_1-2"><path class="cls-1" d="M.93,24.09c.08-.35.15-.65.23-.95h32.62s.03.06.02.08q-.15.87-1.05.87H.93Z"/><path class="cls-1" d="M35.72,15.09c-.09.35-.16.64-.24.95H2.83c.05-.26.11-.52.19-.78.03-.08.15-.14.24-.16.09-.01.18-.01.26,0h32.2Z"/><path class="cls-1" d="M34.75,19.13c-.06.27-.1.52-.17.75-.05.09-.13.16-.23.18-.1.02-.2.02-.3,0H1.88l.21-.95h32.67Z"/><path class="cls-1" d="M3.78,12.05q.14-.94,1-.94h31.86c-.07.3-.11.54-.19.77-.05.08-.12.14-.21.16-.1.02-.2.02-.3,0H3.78Z"/><path class="cls-1" d="M0,28.08l.2-.92h32.66c-.06.28-.11.54-.19.79-.02.06-.13.11-.2.12-.13.01-.25.02-.38,0H0Z"/><polygon class="cls-2" points="35.8 3.03 38.99 3 39.95 0 41.01 3.03 44.09 3.03 41.63 4.91 42.57 7.99 39.98 6.13 37.39 7.89 38.35 4.96 35.8 3.03"/></g></svg>